<?xml version="1.0" encoding="UTF-8" standalone="no"?>
<svg
   xmlns:dc="http://purl.org/dc/elements/1.1/"
   xmlns:cc="http://creativecommons.org/ns#"
   xmlns:rdf="http://www.w3.org/1999/02/22-rdf-syntax-ns#"
   xmlns:svg="http://www.w3.org/2000/svg"
   xmlns="http://www.w3.org/2000/svg"
   viewBox="0 0 604.37335 627.98669"
   height="627.98669"
   width="604.37335"
   xml:space="preserve"
   id="svg2"
   version="1.1"><metadata
     id="metadata8"><rdf:RDF><cc:Work
         rdf:about=""><dc:format>image/svg+xml</dc:format><dc:type
           rdf:resource="http://purl.org/dc/dcmitype/StillImage" /></cc:Work></rdf:RDF></metadata><defs
     id="defs6" /><g
     transform="matrix(1.3333333,0,0,-1.3333333,0,627.98667)"
     id="g10"><g
       transform="scale(0.1)"
       id="g12"><path
         id="path14"
         style="fill:#6cb92f;fill-opacity:1;fill-rule:evenodd;stroke:none"
         d="m 3366.27,4481.11 c 38.7,-18.4 76.63,-37.8 113.85,-58.02 C 2453.18,4842.64 1265.18,4391.43 782.73,3377.15 282.984,2326.49 729.598,1069.62 1780.26,569.879 2794.55,87.4414 4000.89,487.012 4532.84,1460.5 c -16.12,-39.17 -33.31,-78.14 -51.72,-116.85 C 3922.59,169.41 2517.9,-329.719 1343.65,228.809 169.426,787.328 -329.715,2192.02 228.805,3366.25 787.34,4540.5 2192.03,5039.63 3366.27,4481.11" /><path
         id="path16"
         style="fill:#247435;fill-opacity:1;fill-rule:evenodd;stroke:none"
         d="m 892.859,2370.16 c 31.907,-451.44 230.531,-856.84 534.651,-1155.01 -91.86,412.18 -275.48,801.22 -534.651,1155.01" /><path
         id="path18"
         style="fill:#6cb92f;fill-opacity:1;fill-rule:evenodd;stroke:none"
         d="M 988.801,2472.76 C 1446.99,2013.7 1765.19,1472.21 1896.22,883.5 2133.21,767.422 2399.49,701.969 2680.99,701.219 2366.41,1412.33 1769.27,2027.53 988.801,2472.76" /><path
         id="path20"
         style="fill:#247435;fill-opacity:1;fill-rule:evenodd;stroke:none"
         d="m 1168.21,2447.55 c 865.58,-397.17 1554.32,-988.23 1957.6,-1692.12 196.27,49.379 379.71,131.019 544.37,238.968 C 3078.14,1663.66 2201.16,2180.11 1168.21,2447.55" /><path
         id="path22"
         style="fill:#6cb92f;fill-opacity:1;fill-rule:evenodd;stroke:none"
         d="M 1410.21,2491.34 C 2419.5,2262.32 3291.69,1798.3 3912.4,1184.65 c 140.06,130.76 259.18,283.65 351.82,453.1 -781.85,490.09 -1770.41,802.41 -2854.01,853.59" /></g></g></svg>