<?xml version="1.0" encoding="UTF-8" standalone="no"?>
<svg
   xmlns:dc="http://purl.org/dc/elements/1.1/"
   xmlns:cc="http://creativecommons.org/ns#"
   xmlns:rdf="http://www.w3.org/1999/02/22-rdf-syntax-ns#"
   xmlns:svg="http://www.w3.org/2000/svg"
   xmlns="http://www.w3.org/2000/svg"
   viewBox="0 0 695.06665 302.07999"
   height="302.07999"
   width="695.06665"
   xml:space="preserve"
   id="svg2"
   version="1.1"><metadata
     id="metadata8"><rdf:RDF><cc:Work
         rdf:about=""><dc:format>image/svg+xml</dc:format><dc:type
           rdf:resource="http://purl.org/dc/dcmitype/StillImage" /></cc:Work></rdf:RDF></metadata><defs
     id="defs6" /><g
     transform="matrix(1.3333333,0,0,-1.3333333,0,302.08)"
     id="g10"><g
       transform="scale(0.1)"
       id="g12"><path
         id="path14"
         style="fill:#6cb92f;fill-opacity:1;fill-rule:evenodd;stroke:none"
         d="m 1619.29,2155.57 c 18.62,-8.85 36.87,-18.18 54.77,-27.91 -494,201.83 -1065.466,-15.22 -1297.537,-503.13 C 136.125,1119.13 350.965,514.531 856.367,274.141 1344.28,42.0586 1924.57,234.27 2180.46,702.551 2172.7,683.719 2164.43,664.969 2155.58,646.34 1886.91,81.4883 1211.2,-158.609 646.348,110.059 81.5,378.73 -158.605,1054.44 110.066,1619.29 c 268.668,564.85 944.374,804.95 1509.224,536.28" /><path
         id="path16"
         style="fill:#247435;fill-opacity:1;fill-rule:evenodd;stroke:none"
         d="M 429.496,1140.13 C 444.844,922.969 540.387,727.961 686.68,584.531 642.496,782.809 554.168,969.949 429.496,1140.13" /><path
         id="path18"
         style="fill:#6cb92f;fill-opacity:1;fill-rule:evenodd;stroke:none"
         d="M 475.645,1189.49 C 696.055,968.66 849.117,708.191 912.148,424.988 1026.15,369.148 1154.24,337.672 1289.65,337.309 1138.33,679.379 851.078,975.32 475.645,1189.49" /><path
         id="path20"
         style="fill:#247435;fill-opacity:1;fill-rule:evenodd;stroke:none"
         d="M 561.953,1177.36 C 978.324,986.301 1309.63,701.988 1503.62,363.391 c 94.42,23.75 182.67,63.019 261.87,114.949 -284.8,321.941 -706.66,570.38 -1203.537,699.02" /><path
         id="path22"
         style="fill:#6cb92f;fill-opacity:1;fill-rule:evenodd;stroke:none"
         d="M 678.363,1198.42 C 1163.86,1088.26 1583.42,865.039 1882,569.859 c 67.38,62.903 124.68,136.442 169.24,217.961 -376.09,235.75 -851.63,385.98 -1372.877,410.6" /><path
         id="path24"
         style="fill:#247435;fill-opacity:1;fill-rule:nonzero;stroke:none"
         d="m 1995.3,1430.54 c -22.24,-84.31 -60.88,-149.88 -117.09,-194.38 -57.38,-45.68 -127.64,-67.92 -210.77,-67.92 -85.49,0 -154.57,17.57 -208.44,52.69 -53.86,33.97 -94.84,84.31 -122.94,151.06 -28.11,65.57 -42.16,137 -42.16,213.11 0,81.97 16.39,154.57 48.01,216.63 31.62,60.89 76.11,107.73 134.66,139.34 58.55,32.79 122.95,48.02 193.21,48.02 78.45,0 146.37,-19.91 200.23,-59.73 52.7,-39.81 88.99,-94.84 111.24,-163.93 h -110.07 c -12.88,48.01 -33.96,90.16 -67.91,118.27 -42.16,36.3 -83.14,53.86 -135.83,53.86 -51.53,0 -104.22,-19.9 -141.69,-55.03 -49.18,-45.67 -104.22,-137 -104.22,-297.43 0,-197.89 77.29,-281.03 113.59,-312.65 31.61,-26.93 74.94,-44.49 124.12,-44.49 58.55,0 113.58,23.42 149.88,58.55 31.62,30.44 58.55,86.65 74.94,144.03 h 111.24" /><path
         id="path26"
         style="fill:#247435;fill-opacity:1;fill-rule:nonzero;stroke:none"
         d="m 2180.29,1512.5 h 302.11 c -1.17,60.89 -16.39,112.41 -36.3,140.52 -31.61,43.32 -64.4,65.57 -113.58,65.57 -44.5,0 -76.11,-19.9 -100.7,-52.69 -28.11,-36.3 -48.02,-94.85 -51.53,-153.4 z m 413.35,-160.41 c -16.39,-58.56 -45.67,-103.05 -87.82,-135.85 -43.32,-31.61 -101.87,-48 -168.62,-48 -84.31,0 -154.56,25.76 -203.74,77.28 -49.19,51.53 -73.78,124.13 -73.78,217.8 0,97.19 24.59,172.13 73.78,226 50.34,52.69 118.26,79.63 197.89,79.63 77.28,0 144.03,-25.77 193.21,-78.46 48,-52.69 72.59,-125.29 72.59,-221.31 0,-5.86 0,-5.86 0,-5.86 h -418.03 c 0,-46.84 4.68,-127.63 49.18,-183.83 26.94,-32.8 60.9,-62.07 108.9,-62.07 36.3,0 62.06,17.56 84.31,39.82 24.59,24.59 40.99,58.54 55.04,94.85 h 117.09" /><path
         id="path28"
         style="fill:#247435;fill-opacity:1;fill-rule:nonzero;stroke:none"
         d="m 2679.11,1168.24 v 819.67 h 112.41 v -819.67 h -112.41" /><path
         id="path30"
         style="fill:#247435;fill-opacity:1;fill-rule:nonzero;stroke:none"
         d="m 3273.95,1493.77 c -33.95,-17.57 -85.48,-31.62 -153.4,-44.5 -38.63,-7.02 -65.56,-14.05 -80.79,-23.41 -16.39,-8.2 -29.28,-21.09 -37.47,-37.48 -8.19,-17.56 -12.88,-36.29 -12.88,-56.2 0,-31.62 9.37,-57.38 28.11,-78.45 18.73,-21.08 46.83,-31.63 83.13,-31.63 36.3,0 67.92,10.55 96.02,30.45 28.1,19.9 48,46.84 62.06,80.8 9.37,26.93 15.22,65.57 15.22,117.1 z m 113.59,59.71 v -385.24 h -105.4 v 84.31 c -36.29,-30.45 -71.42,-51.52 -105.38,-64.4 -32.78,-12.88 -69.09,-18.74 -106.56,-18.74 -63.22,0 -112.41,15.22 -146.37,45.67 -33.95,31.61 -50.35,70.26 -50.35,118.27 0,28.1 5.86,53.86 18.74,77.28 12.88,23.42 29.27,42.15 50.35,56.21 21.08,14.05 44.5,24.59 70.26,31.61 18.74,5.85 48.01,10.54 86.65,15.23 78.46,9.36 137,21.07 174.47,33.95 0,12.88 0,21.08 0,24.59 0,39.82 -9.36,88.99 -25.76,107.73 -23.42,28.1 -56.2,44.5 -105.38,44.5 -45.67,0 -78.46,-21.08 -97.2,-39.82 -28.09,-25.76 -36.3,-52.69 -44.49,-84.3 h -110.07 c 9.37,37.47 23.42,67.91 42.15,91.33 19.91,25.76 48.02,44.5 85.49,58.55 37.47,12.88 80.79,19.91 131.14,19.91 49.18,0 107.72,-12.89 138.17,-25.76 51.53,-23.43 84.31,-50.36 94.85,-100.71 2.34,-17.56 4.69,-46.84 4.69,-90.17" /><path
         id="path32"
         style="fill:#247435;fill-opacity:1;fill-rule:nonzero;stroke:none"
         d="m 3628.73,1280.66 c 29.27,-40.99 64.4,-60.9 104.22,-60.9 40.98,0 76.11,19.91 104.21,58.56 28.1,38.63 42.15,99.52 42.15,179.15 0,88.99 -14.05,153.39 -43.32,195.55 -28.1,40.98 -64.4,62.06 -106.56,62.06 -40.98,0 -76.11,-19.9 -103.04,-59.72 -28.1,-39.81 -42.16,-103.04 -42.16,-188.52 0,-83.14 15.23,-145.2 44.5,-186.18 z m 249.41,-112.42 v 84.31 c -36.3,-57.38 -90.16,-85.49 -161.59,-85.49 -45.66,0 -87.82,12.9 -126.46,37.49 -37.47,25.76 -67.92,60.87 -88.99,106.55 -21.08,44.49 -31.62,97.19 -31.62,155.74 0,57.37 9.36,110.07 29.28,156.91 18.73,45.66 46.83,81.96 85.47,106.55 38.65,25.76 80.81,37.47 128.81,37.47 33.96,0 65.57,-7.02 92.5,-21.07 26.94,-15.23 49.18,-33.96 65.58,-57.38 v 297.42 h 112.41 v -818.5 h -105.39" /><path
         id="path34"
         style="fill:#247435;fill-opacity:1;fill-rule:nonzero;stroke:none"
         d="m 4236.43,1279.49 c 31.62,-40.99 70.27,-62.07 118.27,-62.07 46.84,0 85.48,21.08 115.93,63.24 31.61,42.15 46.84,105.38 46.84,192.03 0,80.79 -15.23,142.86 -46.84,185.01 -31.62,42.16 -70.26,62.07 -115.93,62.07 -48,0 -86.65,-19.91 -118.27,-62.07 -30.44,-42.15 -45.66,-104.22 -45.66,-188.52 0,-84.31 15.22,-147.54 45.66,-189.69 z m -67.91,426.22 c 50.35,42.16 112.41,63.24 186.18,63.24 80.8,0 147.54,-25.77 199.07,-77.29 51.52,-51.52 77.28,-122.95 77.28,-214.28 0,-73.78 -11.71,-132.32 -33.95,-174.48 -23.42,-43.33 -56.21,-76.11 -99.54,-99.53 -44.5,-23.41 -91.33,-35.13 -142.86,-35.13 -83.13,0 -149.88,25.76 -201.4,77.28 -51.53,51.53 -76.12,126.47 -76.12,223.66 0,106.56 30.45,185.01 91.34,236.53" /><path
         id="path36"
         style="fill:#247435;fill-opacity:1;fill-rule:nonzero;stroke:none"
         d="m 4724.7,1168.24 v 590.16 h 112.42 v -71.42 c 45.67,52.69 96.02,83.14 165.1,83.14 115.93,0 210.77,-80.8 210.77,-227.17 v -374.71 h -110.06 v 374.71 c 0,57.38 -24.59,168.62 -115.93,168.62 -63.23,0 -149.88,-72.6 -149.88,-218.97 V 1168.24 H 4724.7" /></g></g></svg>